<?xml version="1.0" encoding="UTF-8"?>
<svg width="1200pt" height="1200pt" version="1.1" viewBox="0 0 1200 1200" xmlns="http://www.w3.org/2000/svg">
 <path d="m1140.1 635.39c-55.641-12.328-128.26-12.703-181.13 10.219-34.547 15-44.203 25.312-85.828 33.984v-111.09c124.45 63.047 214.22-150.74 77.719-213.84 16.406-38.812 15.797-82.734-17.062-112.41-11.672-10.547-13.828-12.047-21.422-26.062-23.672-43.688-89.719-32.953-105.05 11.578-47.531 31.594-59.484 75.281-36.609 126.94-128.26 58.031-62.625 252.37 55.172 220.31 7.3125-2.0156 14.438-4.7344 21.844-6.4688v115.31c-65.484 13.5-104.2-3.2344-160.6-25.594-33.328-13.219-74.156-22.266-110.11-20.391-0.375-57.656-0.32812-50.719 44.484-68.156 35.016-13.594 41.016-56.906 15.703-83.906-4.3594-30.234-25.594-50.438-57.047-46.359-39.75-35.859-97.453-8.7188-94.641 41.062 1.2188 21.375-0.60938 16.125-3.375 35.156-9 62.062 66.094 47.203 69.844 89.156 0.9375 10.781-0.09375 22.172-0.046875 33-49.641 1.8281-98.578 17.391-141.66 41.766-56.812-15.984-92.062-16.969-147.61-22.078v-86.719c139.5 47.016 205.18-149.29 75.375-218.68 15.562-38.719 15.844-80.719-18.234-109.27-5.0156-4.2188-10.547-8.0625-15.094-12.797-14.109-24.703-27.188-41.438-57.234-41.438-42.094 3.2344-34.969 19.172-52.219 38.906-5.1094 5.8594-12.703 9.6562-18.422 15-31.688 29.766-34.688 72.656-15.703 109.55-31.125 16.922-56.391 45.469-66.562 79.688-27.094 91.453 50.344 169.74 142.82 138.98v88.125c-19.875 2.2969-39.891 3.3281-59.672 6.4219-39.609 6.2344-78.328 19.406-118.12 23.906-7.875 0.89063-27.234-0.46875-32.25 5.9062-29.812 38.016 87.328 9.7969 92.906 8.3906 45.281-11.297 87.094-17.578 133.69-19.688 16.922-0.75 33.891 1.6875 50.672-0.14063-3.3281 11.109-6.9375 22.172-9.0469 33.609-19.594 104.81 50.766 207.74 151.18 237.79 32.531 9.7031 65.344 7.6406 98.812 7.6406h78.469c36.844-0.046875 61.219-2.9531 86.531 30.703 25.078 33.328 36 6.3281 26.953-8.8594-30.281-50.859-70.688-47.812-120.24-47.766h-88.078c-18.891 0-38.531 1.3125-57.188-1.8281-105.84-17.906-189.28-142.64-141.42-245.16 19.828 0.14062 40.781 6.4688 59.812 11.719-0.60938 11.672-1.5 23.484-0.51562 35.109 5.2969 63.141 57.609 113.72 120.94 116.44 48.281 2.0625 101.86-3.375 148.69 1.0312 75.562 7.0781 156.1 59.203 195.19 125.11 5.2031 8.8125 17.625 44.484 33.516 27.984 7.6406-7.9219-1.6875-22.453-5.7656-29.812-103.36-185.81-302.11-144.14-337.55-149.76-17.625 0-36.188 1.3125-53.344-3.1406-51.422-13.453-86.391-68.297-74.906-120.47 174.05-85.5 266.53-15.234 306.14-2.9531 66.375 20.625 145.92 14.438 210.05-12.938 14.062-6 26.344-15.047 40.781-20.672 46.688-18.141 103.03-18.141 151.69-9.1406 13.688 2.5312 26.953 7.6875 40.594 9.75 4.125-1.875 8.6719-3.7969 10.359-8.4375 6.7031-18.141-24.891-21.703-36.188-24.234zm-892.55-230.44c-14.25 4.5-10.172 18.609-10.125 30.422l0.09375 43.266c-11.156-8.3906-43.125-44.156-51.75-45.844-10.547-2.1094-17.391 10.875-11.719 19.172 12.75 18.562 46.266 42.516 63.469 63.375-0.375 9.0469-0.14062 18.094 0 27.141-18.562 5.2031-27.562 12.234-48.094 10.5-85.828-7.2656-100.88-125.76-22.688-174.05 33.562-20.719 34.266-7.8281 15-43.781-13.969-26.062-6.4688-58.688 16.406-77.344 5.3906-4.4062 12.75-6.7031 17.438-11.859 12.281-13.547 2.8125-26.25 28.5-31.266 28.547-5.0625 27.469 16.828 36.797 30.188 2.9062 4.125 7.9688 6.0938 12.141 8.6719 63.234 39.234 7.9219 99.141 14.203 109.55 7.5469 12.469 50.062 16.453 69.281 66.703 27.797 72.797-33.75 149.72-113.81 112.64v-27.141c3.2344-4.0312 43.078-44.906 43.312-45.141 5.6719-5.8125 18.281-15.328 18.75-24.188 0.46875-8.9531-11.203-14.859-18.562-10.406-12.281 7.4062-32.484 32.109-43.5 43.078l0.046875-41.156c0.046875-14.062 4.125-31.266-15.188-32.531zm329.44 126.47c-24.75-24.516-26.016 10.922-25.031 28.312-29.953-23.156-58.172-7.7344-36.562-60.141l0.32812-0.79688c-7.7344-22.875-6.4219-44.156 22.219-50.906 15.75-1.3594 18.094 6.1406 28.5 15.047 12.984 11.109 44.344-18.141 46.594 35.859 7.2656 9.0938 17.25 13.5 14.906 27.375-4.0312 23.906-31.922 19.922-50.906 33.562-0.375-9.6562 0.28125-14.109-0.046875-28.312zm341.11-93.984c-12.656 6.9844-33 28.875-45 38.766 0-17.531 8.1562-68.062-9.4688-71.25-20.297-4.7812-16.031 19.312-15.984 31.734l0.09375 39.562c-8.9531-6.9844-44.719-40.312-52.453-41.062-10.594-1.0312-16.5 11.391-10.5 19.828 11.531 16.172 46.688 39.844 62.953 57.141v25.078c-10.078 5.9062-19.312 12.656-31.125 14.719-84.797 14.906-129.14-114.89-47.109-167.68 34.219-22.031 44.625-6.2344 23.344-44.062-14.859-26.438-7.875-62.672 15.609-81.844 6.1406-5.0156 14.484-7.3594 19.781-13.312 12.047-13.453 1.3594-22.312 28.312-30.234 25.453-1.8281 31.969 9.2344 39.656 31.969 6.1406 5.8594 14.203 9.375 20.438 15.375 45.609 44.016 1.5 84 2.7656 101.16 0.65625 8.4844 19.078 13.219 25.547 17.109 49.453 29.672 66.422 98.906 27.141 144.66-25.453 29.625-68.156 39.234-99 12.234-0.75-8.2969-0.28125-16.781 0-25.078 9.7969-9.8906 65.578-55.406 66.562-65.062 1.2188-12.047-13.5-14.203-21.562-9.75z"/>
</svg>
